<svg width="62" height="32" viewBox="0 0 62 32" fill="none" xmlns="http://www.w3.org/2000/svg">
<g clip-path="url(#clip0_478_294)">
<path fill-rule="evenodd" clip-rule="evenodd" d="M27.6812 15.9701L40.3439 25.3122L52.9941 15.9794L40.3313 6.63718L27.6812 15.9701ZM20.9339 14.3107C19.6918 15.2272 19.6919 16.7129 20.934 17.6294L38.0949 30.2901C39.337 31.2065 41.3509 31.2065 42.593 30.2901L59.7413 17.6386C60.9834 16.7222 60.9834 15.2365 59.7413 14.3201L42.5804 1.65935C41.3383 0.742946 39.3244 0.742946 38.0823 1.65935L20.9339 14.3107Z" fill="white"/>
<path fill-rule="evenodd" clip-rule="evenodd" d="M20.3416 25.3402L7.67876 15.998L20.3289 6.66512L25.3606 9.98375L29.8587 6.66512L22.578 1.6873C21.3359 0.7709 19.322 0.7709 18.0799 1.6873L0.931593 14.3387C-0.310532 15.2551 -0.31053 16.7409 0.931593 17.6573L18.0925 30.3181C19.3347 31.2344 21.3485 31.2344 22.5907 30.3181L29.726 25.3402L25.2279 22.0216L20.3416 25.3402ZM31.0531 17.3125L35.5512 20.6311L39.7389 17.6666C40.981 16.7502 40.981 15.2644 39.7389 14.3481L35.7105 11.0294L31.2123 14.3481L32.9917 16.0073L31.0531 17.3125Z" fill="white"/>
</g>
<defs>
<clipPath id="clip0_478_294">
<rect width="62" height="32" fill="white"/>
</clipPath>
</defs>
</svg>
