<svg width="544" height="551" viewBox="0 0 544 551" fill="none" xmlns="http://www.w3.org/2000/svg">
<path d="M521.376 32.8701H107.84C96.2593 32.8701 86.8716 42.2579 86.8716 53.8382V375.676C86.8716 387.257 96.2593 396.645 107.84 396.645H521.376C532.956 396.645 542.344 387.257 542.344 375.676V53.8382C542.344 42.2579 532.956 32.8701 521.376 32.8701Z" fill="white"/>
<path d="M521.379 397.313H107.84C95.9103 397.313 86.203 387.606 86.203 375.677V53.8383C86.203 41.909 95.9103 32.2018 107.84 32.2018H521.379C533.308 32.2018 543.015 41.909 543.015 53.8383V375.677C543.015 387.606 533.308 397.313 521.379 397.313ZM107.84 33.5386C96.6479 33.5386 87.5429 42.6437 87.5429 53.8353V375.677C87.5429 386.868 96.6479 395.973 107.84 395.973H521.379C532.57 395.973 541.678 386.868 541.678 375.677V53.8383C541.678 42.6467 532.573 33.5416 521.379 33.5416H107.84V33.5386Z" fill="black"/>
<path d="M542.449 78.3593H86.9769C86.6065 78.3593 86.3084 78.0582 86.3084 77.6909V53.8895C86.3084 41.9301 96.0368 32.1987 107.996 32.1987H521.43C533.389 32.1987 543.118 41.927 543.118 53.8895V77.6909C543.118 78.0612 542.819 78.3593 542.449 78.3593ZM87.6453 77.0194H541.778V53.8865C541.778 42.6647 532.648 33.5356 521.427 33.5356H107.996C96.7744 33.5356 87.6453 42.6647 87.6453 53.8865V77.0194Z" fill="black"/>
<path d="M490.601 363.582H138.617C128.672 363.582 120.579 355.488 120.579 345.543V126.907C120.579 116.962 128.672 108.869 138.617 108.869H490.601C500.549 108.869 508.639 116.962 508.639 126.907V345.543C508.639 355.488 500.546 363.582 490.601 363.582ZM138.617 110.206C129.41 110.206 121.919 117.697 121.919 126.904V345.54C121.919 354.748 129.41 362.239 138.617 362.239H490.601C499.808 362.239 507.303 354.748 507.303 345.54V126.907C507.303 117.7 499.811 110.209 490.601 110.209H138.617V110.206Z" fill="black"/>
<path d="M474.489 61.4886C477.477 58.5008 477.477 53.6566 474.489 50.6688C471.501 47.681 466.657 47.681 463.669 50.6688C460.682 53.6566 460.682 58.5008 463.669 61.4886C466.657 64.4765 471.501 64.4765 474.489 61.4886Z" fill="black"/>
<path d="M501.515 57.8226C502.486 53.7102 499.939 49.5896 495.826 48.619C491.714 47.6484 487.593 50.1953 486.623 54.3077C485.652 58.4201 488.199 62.5407 492.311 63.5114C496.424 64.482 500.545 61.935 501.515 57.8226Z" fill="black"/>
<path d="M526.532 57.8233C527.502 53.7109 524.956 49.5903 520.843 48.6197C516.731 47.649 512.61 50.1959 511.639 54.3084C510.669 58.4208 513.216 62.5414 517.328 63.512C521.441 64.4826 525.561 61.9357 526.532 57.8233Z" fill="black"/>
<path d="M262.797 0.668457H14.7204C6.95965 0.668457 0.66835 6.95976 0.66835 14.7205V192.281C0.66835 200.042 6.95965 206.333 14.7204 206.333H262.797C270.558 206.333 276.849 200.042 276.849 192.281V14.7205C276.849 6.95976 270.558 0.668457 262.797 0.668457Z" fill="white"/>
<path d="M262.794 207.004H14.7234C6.60598 207.004 0 200.401 0 192.281V14.7234C0 6.60598 6.60598 0 14.7234 0H262.797C270.914 0 277.52 6.60598 277.52 14.7234V192.281C277.52 200.398 270.914 207.004 262.797 207.004H262.794ZM14.7234 1.33987C7.34365 1.33987 1.33986 7.34365 1.33986 14.7234V192.281C1.33986 199.661 7.34365 205.665 14.7234 205.665H262.797C270.177 205.665 276.18 199.661 276.18 192.281V14.7234C276.18 7.34365 270.177 1.33987 262.797 1.33987H14.7234Z" fill="black"/>
<path d="M250.139 26.6255H203.099C201.154 26.6255 199.579 25.0508 199.579 23.1057C199.579 21.1607 201.154 19.5859 203.099 19.5859H250.139C252.084 19.5859 253.659 21.1607 253.659 23.1057C253.659 25.0508 252.084 26.6255 250.139 26.6255Z" fill="black"/>
<path d="M260.24 41.6982H192.874C190.929 41.6982 189.354 40.1235 189.354 38.1785C189.354 36.2334 190.929 34.6587 192.874 34.6587H260.24C262.186 34.6587 263.76 36.2334 263.76 38.1785C263.76 40.1235 262.186 41.6982 260.24 41.6982Z" fill="black"/>
<path d="M260.415 70.031H193.1C191.155 70.031 189.58 68.4563 189.58 66.5112C189.58 64.5662 191.155 62.9915 193.1 62.9915H260.415C262.36 62.9915 263.935 64.5662 263.935 66.5112C263.935 68.4563 262.36 70.031 260.415 70.031Z" fill="black"/>
<path d="M260.189 83.6434H194.34C192.395 83.6434 190.821 82.0687 190.821 80.1237C190.821 78.1786 192.395 76.6039 194.34 76.6039H260.189C262.134 76.6039 263.709 78.1786 263.709 80.1237C263.709 82.0687 262.134 83.6434 260.189 83.6434Z" fill="black"/>
<path d="M260.635 97.4757H194.786C192.841 97.4757 191.266 95.901 191.266 93.9559C191.266 92.0109 192.841 90.4362 194.786 90.4362H260.635C262.58 90.4362 264.155 92.0109 264.155 93.9559C264.155 95.901 262.58 97.4757 260.635 97.4757Z" fill="black"/>
<path d="M260.412 111.085H193.1C191.155 111.085 189.58 109.51 189.58 107.565C189.58 105.62 191.155 104.046 193.1 104.046H260.412C262.357 104.046 263.932 105.62 263.932 107.565C263.932 109.51 262.357 111.085 260.412 111.085Z" fill="black"/>
<path d="M260.189 125.143H192.877C190.932 125.143 189.357 123.568 189.357 121.623C189.357 119.678 190.932 118.104 192.877 118.104H260.189C262.134 118.104 263.709 119.678 263.709 121.623C263.709 123.568 262.134 125.143 260.189 125.143Z" fill="black"/>
<path d="M217.518 56.4699H193C191.055 56.4699 189.481 54.8951 189.481 52.9501C189.481 51.005 191.055 49.4303 193 49.4303H217.518C219.463 49.4303 221.038 51.005 221.038 52.9501C221.038 54.8951 219.463 56.4699 217.518 56.4699Z" fill="black"/>
<path d="M260.578 56.4699H234.708C232.763 56.4699 231.188 54.8951 231.188 52.9501C231.188 51.005 232.763 49.4303 234.708 49.4303H260.578C262.523 49.4303 264.098 51.005 264.098 52.9501C264.098 54.8951 262.523 56.4699 260.578 56.4699Z" fill="black"/>
<path d="M85.3658 136.356H19.017C17.0719 136.356 15.4972 134.781 15.4972 132.836C15.4972 130.891 17.0719 129.316 19.017 129.316H85.3658C87.3109 129.316 88.8856 130.891 88.8856 132.836C88.8856 134.781 87.3109 136.356 85.3658 136.356Z" fill="black"/>
<path d="M148.351 136.13H97.5571C95.612 136.13 94.0373 134.555 94.0373 132.61C94.0373 130.665 95.612 129.091 97.5571 129.091H148.351C150.297 129.091 151.871 130.665 151.871 132.61C151.871 134.555 150.297 136.13 148.351 136.13Z" fill="black"/>
<path d="M65.557 121.678H18.7942C16.8492 121.678 15.2744 120.103 15.2744 118.158C15.2744 116.213 16.8492 114.638 18.7942 114.638H65.557C67.502 114.638 69.0767 116.213 69.0767 118.158C69.0767 120.103 67.502 121.678 65.557 121.678Z" fill="black"/>
<path d="M148.526 196.939H20.0076C16.9304 196.939 14.4283 194.437 14.4283 191.36V150.751C14.4283 147.677 16.9304 145.172 20.0076 145.172H148.526C151.603 145.172 154.105 147.674 154.105 150.751V191.36C154.105 194.434 151.603 196.939 148.526 196.939ZM20.0076 146.515C17.6711 146.515 15.7682 148.418 15.7682 150.754V191.363C15.7682 193.699 17.6711 195.602 20.0076 195.602H148.526C150.863 195.602 152.765 193.699 152.765 191.363V150.754C152.765 148.418 150.863 146.515 148.526 146.515H20.0076Z" fill="black"/>
<path d="M261.424 196.939H169.497C166.42 196.939 163.918 194.437 163.918 191.36V150.751C163.918 147.674 166.42 145.172 169.497 145.172H261.424C264.498 145.172 267 147.674 267 150.751V191.36C267 194.437 264.498 196.939 261.424 196.939ZM169.497 146.515C167.161 146.515 165.258 148.418 165.258 150.754V191.363C165.258 193.699 167.161 195.602 169.497 195.602H261.424C263.76 195.602 265.663 193.699 265.663 191.363V150.754C265.663 148.418 263.76 146.515 261.424 146.515H169.497Z" fill="black"/>
<path d="M175.074 19.3362H20.4593C17.501 19.3362 15.1029 21.7343 15.1029 24.6926V91.8574C15.1029 94.8157 17.501 97.2139 20.4593 97.2139H175.074C178.032 97.2139 180.43 94.8157 180.43 91.8574V24.6926C180.43 21.7343 178.032 19.3362 175.074 19.3362Z" fill="black"/>
<path d="M492.115 362.781C491.474 359.433 490.863 356.948 490.312 354.594C486.226 337.176 481.842 322.973 478.641 313.398L469.958 281.763L362.847 301.237C362.847 301.237 359.378 324.626 352.303 362.781H492.112H492.115Z" fill="black"/>
<path d="M376.694 358.788C388.452 358.788 396.103 345.98 390.843 335.092C389.635 332.596 388.41 330.079 387.199 327.64C378.163 309.403 352.303 313.384 349.081 333.608C349.024 333.963 348.304 334.322 348.256 334.683C346.588 347.479 356.434 358.791 368.905 358.791H376.694V358.788Z" fill="black"/>
<path d="M523.854 215.378C523.854 170.413 515.122 149.652 453.952 132.836C438.412 128.564 415.514 126.772 393.318 129.268C331.509 130.03 307.889 157.61 286.252 156.927C262.427 156.174 242.639 125.243 242.639 125.243C234.753 116.682 226.392 121.015 221.915 123.559C216.555 126.61 214.264 133.742 213.297 138.75C212.674 141.983 213.222 145.337 214.815 148.189C222.713 162.334 250.464 208.811 276.145 212.638C296.519 215.673 337.357 204.331 355.961 200.736C369.08 246.538 348.247 334.668 348.247 334.668C363.805 323.527 415.903 337.892 449.294 350.58C465.99 356.925 480.978 353.384 491.92 347.121C502.864 340.858 483.48 276.171 483.48 276.171C483.48 276.171 523.854 254.577 523.854 215.375V215.378Z" fill="white"/>
<path d="M467.1 354.63C461.545 354.63 455.496 353.655 449.056 351.21C419.269 339.889 364.602 323.783 348.638 335.216C348.413 335.378 348.108 335.381 347.877 335.228C347.645 335.071 347.533 334.788 347.597 334.517C347.804 333.641 368.062 246.791 355.485 201.512C351.529 202.292 346.69 203.382 341.135 204.635C320.435 209.302 292.084 215.691 276.048 213.3C250.091 209.434 222.17 162.738 214.23 148.517C212.553 145.512 211.987 142.001 212.641 138.626C213.686 133.216 216.085 126.11 221.583 122.981C225.485 120.762 234.627 115.559 243.132 124.791C243.159 124.821 243.184 124.851 243.205 124.884C243.4 125.191 263.08 155.53 286.276 156.261C294.412 156.52 302.938 152.657 313.739 147.767C331.166 139.879 355.031 129.075 393.312 128.603C414.18 126.251 437.512 127.624 454.132 132.195C484.464 140.532 502.428 150.08 512.376 163.15C522.459 176.395 524.525 193.612 524.525 215.384C524.525 235.861 513.445 251.467 504.147 260.951C495.337 269.942 486.409 275.286 484.275 276.503C485.127 279.402 489.36 294.062 492.458 309.171C497.137 331.985 497.068 344.953 492.251 347.708C486.045 351.258 477.428 354.633 467.097 354.633L467.1 354.63ZM366.057 330.031C389.912 330.031 426.88 341.349 449.535 349.957C467.462 356.768 482.299 351.86 491.591 346.543C500.19 341.623 488.192 294.219 482.845 276.367C482.754 276.063 482.89 275.735 483.17 275.584C483.57 275.37 523.188 253.719 523.188 215.378C523.188 172.68 516.341 150.682 453.78 133.483C437.313 128.958 414.177 127.597 393.399 129.937C355.332 130.409 331.612 141.146 314.293 148.984C303.333 153.943 294.695 157.863 286.237 157.595C262.586 156.848 243.31 127.513 242.112 125.652C235.265 118.26 228.231 120.738 222.249 124.141C217.193 127.016 214.95 133.742 213.956 138.876C213.363 141.941 213.878 145.133 215.402 147.861C223.266 161.946 250.895 208.197 276.247 211.972C292.036 214.324 320.245 207.968 340.843 203.325C346.699 202.006 351.755 200.865 355.84 200.076C356.175 200.013 356.515 200.215 356.611 200.549C368.661 242.621 351.974 321.116 349.265 333.238C353.305 330.985 359.131 330.028 366.06 330.028L366.057 330.031Z" fill="black"/>
<path d="M229.791 154.328C222.902 154.328 218.434 146.701 218.244 146.373C218.061 146.054 218.169 145.645 218.491 145.461C218.81 145.277 219.22 145.386 219.404 145.708C219.446 145.78 223.763 153.094 229.912 152.991C234.648 152.919 239.336 148.625 243.846 140.228C244.021 139.903 244.427 139.779 244.753 139.954C245.078 140.129 245.201 140.535 245.027 140.86C240.266 149.721 235.187 154.253 229.927 154.331C229.882 154.331 229.836 154.331 229.791 154.331V154.328Z" fill="black"/>
<path d="M427.925 256.727C427.673 256.727 427.432 256.582 427.317 256.338C427.161 256.004 427.308 255.604 427.642 255.45C450.336 244.951 461.335 229.547 466.565 218.473C472.237 206.462 472.544 196.803 472.547 196.707C472.556 196.343 472.855 196.054 473.216 196.054H473.234C473.604 196.063 473.896 196.37 473.887 196.74C473.878 197.144 473.58 206.727 467.805 218.985C462.485 230.279 451.293 245.987 428.205 256.667C428.115 256.709 428.019 256.73 427.925 256.73V256.727Z" fill="black"/>
<path d="M437.955 288.266C437.587 288.266 437.289 287.971 437.286 287.604C437.28 287.234 437.578 286.929 437.949 286.926C465.776 286.595 484.13 276.253 484.311 276.147C484.63 275.964 485.04 276.075 485.223 276.394C485.407 276.713 485.296 277.123 484.977 277.307C484.793 277.412 466.134 287.926 437.964 288.263H437.955V288.266Z" fill="black"/>
<path d="M412.193 285.824C412.193 285.824 417.895 286.436 429.174 283.611C437.701 281.477 435.184 253.797 424.812 261.294C416.152 267.554 411.085 268.367 411.085 268.367L402.735 264.206C399.457 262.574 395.943 261.502 392.327 261.075C377.934 259.379 378.799 262.704 378.799 262.704C378.181 266.064 379.383 266.573 382.026 267.684L393.284 272.417C394.847 273.073 395.202 275.199 393.944 276.364C391.989 278.171 389.731 279.595 387.283 280.561C382.845 282.314 375.107 285.132 367.137 286.933C363.389 287.782 362.199 292.424 365.656 294.144L390.511 295.974C396.81 296.438 403.021 294.252 407.743 289.91L412.187 285.821L412.193 285.824Z" fill="white"/>
<path d="M392.149 296.706C391.589 296.706 391.026 296.685 390.466 296.643L365.611 294.812C365.524 294.806 365.439 294.782 365.361 294.743C363.648 293.891 362.754 292.307 362.967 290.51C363.211 288.468 364.831 286.77 366.99 286.279C375.098 284.446 383.032 281.519 387.04 279.938C389.415 279.002 391.583 277.635 393.489 275.873C393.92 275.473 394.115 274.886 394.01 274.296C393.908 273.715 393.549 273.254 393.025 273.034L381.768 268.301C379.175 267.211 377.456 266.488 378.121 262.683C378.106 262.43 378.151 261.981 378.561 261.508C379.994 259.864 384.649 259.494 392.402 260.409C396.063 260.84 399.64 261.918 403.031 263.607L411.175 267.666C412.181 267.437 416.962 266.142 424.417 260.753C427.178 258.756 429.241 259.244 430.487 260.003C434.248 262.3 435.609 270.068 434.712 275.949C434.01 280.552 432.05 283.581 429.337 284.262C419.392 286.752 413.774 286.604 412.431 286.517L408.201 290.407C403.793 294.46 398.024 296.706 392.149 296.706ZM365.846 293.487L390.563 295.309C396.639 295.758 402.736 293.611 407.294 289.42L411.738 285.331C411.88 285.201 412.073 285.138 412.262 285.159C412.319 285.165 418.01 285.716 429.012 282.961C431.177 282.419 432.773 279.788 433.39 275.744C434.227 270.264 432.98 263.089 429.792 261.144C428.485 260.346 426.944 260.578 425.206 261.833C416.517 268.114 411.407 268.99 411.193 269.027C411.055 269.048 410.913 269.027 410.79 268.963L402.441 264.802C399.189 263.182 395.759 262.15 392.252 261.737C382.06 260.536 379.973 261.93 379.576 262.387C379.57 262.393 379.452 262.532 379.452 262.532C379.476 262.625 379.479 262.725 379.461 262.821C378.94 265.654 379.651 265.952 382.291 267.063L393.549 271.797C394.486 272.191 395.154 273.037 395.335 274.061C395.519 275.103 395.172 276.144 394.404 276.852C392.375 278.728 390.066 280.182 387.537 281.182C382.599 283.13 375.074 285.825 367.291 287.583C365.43 288.004 364.449 289.435 364.301 290.666C364.157 291.855 364.72 292.876 365.849 293.484L365.846 293.487Z" fill="black"/>
<path d="M173.7 82.6772C174.245 81.0302 175.877 80.0667 177.512 80.425C182.077 81.4306 205.574 86.6064 209.958 87.603C214.342 88.5997 214.516 93.4804 217.013 97.9486C219.183 101.833 226.654 116.071 234.795 125.992C237.249 128.982 237.589 133.267 235.683 136.663C234.587 138.611 233.196 140.526 231.543 141.655C227.295 144.558 224.103 148.017 215.573 127.609C215.052 126.363 214.179 125.294 213.05 124.553C211.463 123.508 208.964 121.608 206.525 118.715C206.525 118.715 192.236 136.163 188.583 100.737C188.258 97.5873 189.661 94.5192 192.314 92.9715C192.525 92.8481 192.747 92.7246 192.979 92.6012L175.859 87.1123C174.068 86.5372 173.092 84.5319 173.703 82.6862L173.7 82.6772Z" fill="white"/>
<path d="M226.955 144.531C226.587 144.531 226.211 144.479 225.823 144.368C222.655 143.447 219.403 138.509 214.953 127.862C214.477 126.727 213.692 125.772 212.68 125.107C211.111 124.074 208.814 122.325 206.514 119.724C205.147 121.166 201.335 124.637 197.294 123.424C192.471 121.976 189.312 114.361 187.915 100.797C187.584 97.5932 188.924 94.5251 191.366 92.7787L175.655 87.7414C174.637 87.4163 173.806 86.6997 173.309 85.7241C172.8 84.7245 172.71 83.5352 173.065 82.4663C173.718 80.4971 175.694 79.3379 177.657 79.7715C185.317 81.4576 206.077 86.0342 210.106 86.9496C213.508 87.7234 214.634 90.6048 215.826 93.6549C216.335 94.9586 216.862 96.3075 217.597 97.6203C217.835 98.0448 218.136 98.5958 218.494 99.2492C221.369 104.494 228.099 116.776 235.313 125.565C237.93 128.753 238.312 133.345 236.265 136.985C234.904 139.406 233.443 141.161 231.92 142.2L231.36 142.589C229.984 143.546 228.572 144.531 226.958 144.531H226.955ZM206.523 118.04C206.718 118.04 206.908 118.128 207.034 118.278C209.395 121.078 211.807 122.927 213.418 123.987C214.652 124.8 215.613 125.962 216.191 127.344C220.355 137.304 223.534 142.305 226.199 143.082C227.689 143.516 229.035 142.576 230.595 141.49L231.164 141.095C232.516 140.171 233.838 138.569 235.096 136.329C236.876 133.164 236.545 129.178 234.274 126.411C226.982 117.526 220.21 105.166 217.317 99.8905C216.958 99.2402 216.66 98.6922 216.423 98.2707C215.646 96.8796 215.101 95.4856 214.574 94.1397C213.424 91.195 212.514 88.8675 209.804 88.2533C205.782 87.338 185.025 82.7644 177.365 81.0783C176.07 80.7922 174.766 81.572 174.333 82.8878C174.086 83.6315 174.146 84.4234 174.498 85.1189C174.83 85.7723 175.384 86.251 176.058 86.4678L193.178 91.9567C193.434 92.038 193.618 92.2669 193.642 92.5348C193.666 92.8028 193.524 93.0587 193.287 93.1852C193.064 93.3026 192.85 93.4231 192.645 93.5405C190.276 94.9255 188.939 97.7197 189.243 100.661C190.908 116.824 194.747 121.262 197.676 122.141C201.777 123.373 205.963 118.335 206.002 118.284C206.128 118.131 206.315 118.04 206.514 118.04H206.52H206.523Z" fill="black"/>
<path d="M209.795 111.383C209.681 111.383 209.564 111.353 209.458 111.293C208.323 110.631 206.236 109.149 205.39 108.544C200.766 105.229 198.185 101.932 197.056 100.261C196.267 99.0926 195.87 97.7829 195.903 96.4761C195.969 94.0102 197.532 93.4622 198.285 93.2002C201.037 92.2398 205.448 94.8894 205.941 95.1935C206.255 95.3862 206.354 95.7987 206.158 96.1148C205.962 96.428 205.55 96.5273 205.237 96.3316C204.045 95.597 200.549 93.8265 198.724 94.4618C198.014 94.7087 197.279 94.9647 197.24 96.5093C197.213 97.539 197.532 98.5748 198.164 99.5112C199.242 101.107 201.714 104.262 206.167 107.454C206.815 107.918 209.016 109.483 210.13 110.137C210.449 110.323 210.557 110.733 210.37 111.052C210.247 111.266 210.021 111.383 209.792 111.383H209.795Z" fill="black"/>
<path d="M206.715 119.582C206.538 119.582 206.36 119.513 206.227 119.371C202.443 115.346 202.666 111.064 202.678 110.887C202.702 110.519 203.018 110.239 203.388 110.26C203.755 110.284 204.035 110.6 204.014 110.968C204.011 111.031 203.846 114.882 207.206 118.453C207.459 118.721 207.447 119.146 207.176 119.398C207.046 119.519 206.881 119.579 206.718 119.579L206.715 119.582Z" fill="black"/>
<path d="M431.734 131.785L430.184 89.882L400.788 105.319L401.11 131.803C401.324 137.708 406.175 141.001 406.175 141.001C412.182 145.569 420.597 144.741 426.721 140.339L428.139 139.321C430.512 137.617 431.87 134.772 431.734 131.785Z" fill="white"/>
<path d="M415.566 144.75C412.019 144.75 408.595 143.684 405.768 141.534C405.587 141.414 400.667 138 400.442 131.827L400.119 105.328C400.116 105.075 400.255 104.843 400.478 104.726L429.873 89.2888C430.078 89.1805 430.322 89.1865 430.521 89.3009C430.72 89.4153 430.846 89.6261 430.855 89.8549L432.406 131.755C432.55 134.983 431.105 138.015 428.534 139.863L427.115 140.881C423.538 143.452 419.477 144.747 415.569 144.747L415.566 144.75ZM401.462 105.722L401.782 131.797C401.98 137.259 406.506 140.417 406.551 140.451C412.046 144.627 419.986 144.359 426.33 139.797L427.748 138.779C429.949 137.196 431.189 134.594 431.063 131.818V131.812L429.551 90.972L401.459 105.726L401.462 105.722Z" fill="black"/>
<path d="M387.446 41.8909C395.293 41.4242 385.429 49.7313 414.445 41.0117C426.001 37.5401 420.157 51.4145 423.156 50.5232C434.236 47.2263 433.854 47.3256 439.261 48.7889C442.841 49.7554 445.175 56.5481 444.5 61.6215C443.612 68.3178 438.238 70.0491 433.483 84.2035C430.141 94.1426 430.963 100.179 427.091 101.631C423.177 103.097 420.284 97.6924 415.891 98.963C410.206 100.607 411.329 110.733 405.795 114.933C402.305 117.583 394.185 118.811 381.172 112.301C379.064 111.248 377.98 108.782 378.603 106.445C379.401 103.452 380.431 99.6766 381.707 96.1539C387.79 79.3649 393.598 75.5681 391.493 71.2203C388.268 64.5572 376.014 68.381 373.984 62.9072C371.877 57.2225 376.706 42.5352 387.449 41.8939L387.446 41.8909Z" fill="black"/>
<path d="M414.831 70.7956L412.585 75.1073C411.528 77.1397 410.61 79.2383 409.833 81.4031C408.376 85.4589 405.615 92.3178 404.103 96.1958C399.249 108.658 384.351 94.9674 384.351 94.9674L383.316 91.5379L381.313 90.6979C380.925 90.5353 380.567 90.2914 380.311 89.9482C379.669 89.0961 379.666 87.967 380.211 87.136C383.204 82.5864 389.446 72.3734 391.689 63.2051C391.689 63.2051 404.473 59.8057 414.831 70.7926V70.7956Z" fill="white"/>
<path d="M397.367 102.1C391.207 102.1 384.225 95.7563 383.903 95.4582C383.815 95.3769 383.749 95.2745 383.716 95.1601L382.77 92.0318L381.057 91.3152C380.527 91.0924 380.088 90.7612 379.778 90.3517C378.986 89.3009 378.935 87.8616 379.654 86.7687C382.328 82.7069 388.786 72.259 391.041 63.0486C391.099 62.8107 391.282 62.624 391.52 62.5608C391.653 62.5247 404.813 59.1916 415.322 70.338C415.517 70.5458 415.559 70.8529 415.427 71.1058L413.181 75.4175C412.142 77.4137 411.227 79.5063 410.465 81.629C409.408 84.5767 407.635 89.066 406.211 92.6731C405.66 94.0732 405.148 95.3679 404.732 96.4367C403.546 99.4808 401.673 101.32 399.165 101.905C398.581 102.04 397.979 102.103 397.37 102.103L397.367 102.1ZM384.941 94.5911C386.025 95.5455 393.444 101.856 398.861 100.598C400.911 100.122 402.465 98.5564 403.483 95.949C403.898 94.8801 404.41 93.5824 404.964 92.1793C406.385 88.5812 408.153 84.101 409.203 81.1744C409.986 78.9944 410.926 76.8477 411.995 74.7972L414.018 70.9101C405.093 61.7539 394.369 63.3406 392.24 63.7682C389.942 72.7347 384.089 82.46 380.771 87.5033C380.365 88.1236 380.392 88.9456 380.846 89.5447C381.012 89.7645 381.265 89.9482 381.575 90.0807L383.577 90.9207C383.761 90.999 383.903 91.1526 383.96 91.3453L384.944 94.5971L384.941 94.5911Z" fill="black"/>
<path d="M411.66 85.8443C411.66 85.8443 417.044 75.4686 421.091 79.0035C425.137 82.5353 418.929 93.8052 411.66 85.8443Z" fill="white"/>
<path d="M391.722 87.6148C390.584 87.6148 389.63 87.2474 388.874 86.5188C387.474 85.1669 386.872 82.5925 387.079 78.862C387.239 75.9956 388.043 74.2824 389.533 73.623C390.632 73.1352 391.797 73.1021 392.812 73.5266C393.652 73.8789 394.293 74.5082 394.574 75.2519C396.362 80.0031 395.615 83.9053 394.321 85.9708C393.709 86.9493 392.969 87.5244 392.24 87.5907C392.062 87.6057 391.888 87.6148 391.719 87.6148H391.722ZM391.325 74.5684C390.918 74.5684 390.494 74.6617 390.078 74.8454C389.091 75.282 388.549 76.6218 388.416 78.9373C388.233 82.2131 388.711 84.5045 389.804 85.5583C390.385 86.1183 391.147 86.3502 392.12 86.2598C392.345 86.2388 392.776 85.9166 393.188 85.2632C394.263 83.55 394.941 80.0242 393.324 75.7246C393.176 75.3302 392.791 74.9719 392.297 74.7641C391.993 74.6376 391.665 74.5744 391.325 74.5744V74.5684Z" fill="black"/>
<path d="M416.523 77.7781C416.493 77.7781 416.466 77.7781 416.436 77.7721L391.903 74.5685C391.535 74.5203 391.276 74.1861 391.328 73.8187C391.376 73.4514 391.707 73.1925 392.077 73.2406L416.61 76.4443C416.978 76.4924 417.237 76.8266 417.185 77.194C417.14 77.5312 416.854 77.7781 416.523 77.7781Z" fill="black"/>
<path d="M381.006 84.9892C380.904 84.9892 380.801 84.9681 380.708 84.923C380.003 84.5858 379.501 83.273 379.263 82.5203C378.516 80.1477 378.263 76.6459 379.796 73.9301C380.31 73.0178 381.045 72.4638 381.982 72.2891C384.303 71.8495 387.022 74.0325 387.136 74.1258C387.422 74.3576 387.464 74.7792 387.233 75.0682C387.001 75.3543 386.579 75.3994 386.29 75.1646C385.643 74.6407 383.641 73.3369 382.228 73.6049C381.692 73.7073 381.277 74.0294 380.961 74.5895C378.907 78.2297 380.672 83.2489 381.313 83.7337C381.647 83.8933 381.774 84.2847 381.614 84.6189C381.5 84.8567 381.256 84.9922 381.006 84.9922V84.9892Z" fill="black"/>
<path d="M227.102 349.915C237.358 349.915 245.671 341.602 245.671 331.347C245.671 321.092 237.358 312.778 227.102 312.778C216.847 312.778 208.534 321.092 208.534 331.347C208.534 341.602 216.847 349.915 227.102 349.915Z" fill="white"/>
<path d="M287.818 349.915C298.073 349.915 306.386 341.602 306.386 331.347C306.386 321.092 298.073 312.778 287.818 312.778C277.563 312.778 269.25 321.092 269.25 331.347C269.25 341.602 277.563 349.915 287.818 349.915Z" fill="white"/>
<path d="M287.818 350.587C277.21 350.587 268.578 341.957 268.578 331.347C268.578 320.736 277.207 312.107 287.818 312.107C298.428 312.107 307.058 320.736 307.058 331.347C307.058 341.957 298.425 350.587 287.818 350.587ZM287.818 313.447C277.948 313.447 269.918 321.477 269.918 331.347C269.918 341.217 277.948 349.247 287.818 349.247C297.688 349.247 305.718 341.217 305.718 331.347C305.718 321.477 297.688 313.447 287.818 313.447Z" fill="black"/>
<path d="M281.649 338.537V324.163C281.649 323.428 282.419 322.952 283.076 323.274L297.45 330.371C298.182 330.732 298.188 331.774 297.459 332.142L283.085 339.419C282.425 339.753 281.649 339.274 281.649 338.537Z" fill="black"/>
<path d="M348.533 349.915C358.788 349.915 367.102 341.602 367.102 331.347C367.102 321.092 358.788 312.778 348.533 312.778C338.278 312.778 329.965 321.092 329.965 331.347C329.965 341.602 338.278 349.915 348.533 349.915Z" fill="white"/>
<path d="M348.533 350.587C337.926 350.587 329.293 341.957 329.293 331.347C329.293 320.736 337.926 312.107 348.533 312.107C359.141 312.107 367.773 320.736 367.773 331.347C367.773 341.957 359.144 350.587 348.533 350.587ZM348.533 313.447C338.663 313.447 330.633 321.477 330.633 331.347C330.633 341.217 338.663 349.247 348.533 349.247C358.403 349.247 366.433 341.217 366.433 331.347C366.433 321.477 358.403 313.447 348.533 313.447Z" fill="black"/>
<path d="M354.621 338.088C354.45 338.088 354.278 338.022 354.149 337.892L341.759 325.502C341.497 325.241 341.497 324.816 341.759 324.557C342.021 324.295 342.445 324.295 342.704 324.557L355.094 336.947C355.356 337.209 355.356 337.634 355.094 337.892C354.965 338.022 354.793 338.088 354.621 338.088Z" fill="black"/>
<path d="M342.235 338.088C342.063 338.088 341.891 338.022 341.762 337.893C341.5 337.631 341.5 337.206 341.762 336.947L354.152 324.557C354.414 324.295 354.838 324.295 355.097 324.557C355.359 324.819 355.359 325.244 355.097 325.503L342.707 337.893C342.578 338.022 342.406 338.088 342.235 338.088Z" fill="black"/>
<path d="M259.732 257.672C259.512 257.672 259.295 257.564 259.169 257.365C258.97 257.055 259.06 256.64 259.37 256.441L292.235 235.316C292.548 235.117 292.96 235.208 293.159 235.518C293.358 235.828 293.267 236.244 292.957 236.442L260.093 257.567C259.982 257.639 259.855 257.672 259.732 257.672Z" fill="black"/>
<path d="M216.073 285.737C215.854 285.737 215.637 285.629 215.51 285.43C215.312 285.12 215.402 284.704 215.712 284.506L245.466 265.38C245.776 265.182 246.192 265.272 246.39 265.582C246.589 265.892 246.499 266.308 246.189 266.506L216.435 285.632C216.323 285.704 216.197 285.737 216.073 285.737Z" fill="black"/>
<path d="M244.527 290.549C244.307 290.549 244.09 290.44 243.964 290.241C243.765 289.931 243.855 289.516 244.165 289.317L320.688 240.128C321.001 239.929 321.414 240.019 321.612 240.329C321.811 240.639 321.721 241.055 321.411 241.254L244.885 290.443C244.773 290.515 244.647 290.549 244.524 290.549H244.527Z" fill="black"/>
<path d="M154.214 429.211L60.4298 428.278C43.4693 428.278 28.9656 417.206 25.9938 400.351L9.93955 309.259C8.02761 298.407 16.2956 288.447 27.2133 288.447H88.4074L154.217 429.211H154.214Z" fill="white"/>
<path d="M154.214 429.879H154.208L60.4236 428.946C42.7223 428.946 28.2909 417.233 25.3342 400.466L9.27994 309.373C8.32849 303.968 9.79783 298.467 13.3116 294.276C16.7802 290.145 21.8445 287.772 27.213 287.772H88.4072C88.6661 287.772 88.904 287.923 89.0124 288.158L154.822 428.922C154.919 429.13 154.904 429.373 154.78 429.566C154.657 429.759 154.446 429.873 154.217 429.873L154.214 429.879ZM27.21 289.115C22.239 289.115 17.548 291.31 14.3353 295.14C11.0745 299.027 9.7105 304.131 10.5957 309.144L26.65 400.237C29.4893 416.354 43.3787 427.609 60.4266 427.609L153.154 428.53L87.9766 289.115H27.21Z" fill="black"/>
<path d="M98.2622 540.588H82.8342V428.115L98.2622 428.702V540.588Z" fill="black"/>
<path d="M126.986 521.773H57.5785C46.7512 521.773 37.9743 530.55 37.9743 541.377H146.594C146.594 530.55 137.817 521.773 126.989 521.773H126.986Z" fill="black"/>
<path d="M35.3066 359.448C34.9874 359.448 34.7044 359.219 34.6472 358.894L26.864 314.675C26.8007 314.311 27.0416 313.965 27.4059 313.901C27.7733 313.838 28.1165 314.082 28.1797 314.443L35.963 358.662C36.0262 359.026 35.7853 359.372 35.421 359.436C35.3819 359.442 35.3427 359.445 35.3036 359.445L35.3066 359.448Z" fill="black"/>
<path d="M123.536 215.022C129.699 214.477 134.005 220.096 137.455 228.605C140.27 235.551 139.162 241.335 135.363 245.144C123.063 257.465 109.719 293.018 91.4723 303.83C76.9144 312.456 46.4408 310.86 32.3647 292.972C18.9812 275.964 16.9458 251.331 32.0907 240.248C45.7032 230.285 58.3822 247.36 72.8316 238.095C87.0763 228.96 86.8505 221.388 95.2781 216.931C104.323 212.15 106.072 216.567 123.539 215.022H123.536Z" fill="black"/>
<path d="M211.362 485.714C211.232 486.25 217.51 514.977 217.51 514.977L203.079 512.562L198.731 488.273L211.359 485.714H211.362Z" fill="white"/>
<path d="M217.51 515.649C217.474 515.649 217.438 515.649 217.399 515.64L202.967 513.225C202.687 513.177 202.467 512.96 202.419 512.683L198.071 488.394C198.008 488.035 198.24 487.692 198.598 487.62L211.226 485.061C211.452 485.015 211.684 485.088 211.84 485.253C211.97 485.389 212.036 485.569 212.027 485.75C212.123 486.942 215.74 503.755 218.16 514.839C218.209 515.055 218.145 515.281 217.992 515.444C217.865 515.576 217.688 515.652 217.507 515.652L217.51 515.649ZM203.657 511.981L216.646 514.155C212.355 494.509 211.142 488.442 210.817 486.509L199.508 488.8L203.657 511.981Z" fill="black"/>
<path d="M209.847 505.556C210.729 504.812 211.991 504.09 213.599 504.02C216.016 503.918 218.223 505.432 219.223 507.655C221.725 513.216 228.325 528.71 230.189 541.374C230.848 545.848 227.47 549.488 222.21 546.556C213.587 541.75 201.624 530.718 195.361 514.423C194.642 512.553 194.901 510.437 196.081 508.823C197.045 507.504 198.354 505.908 199.872 504.547C201.323 503.247 203.506 503.228 205.011 504.466L206.366 505.58C207.384 506.417 208.841 506.402 209.85 505.556H209.847Z" fill="white"/>
<path d="M225.763 548.287C224.706 548.287 223.411 547.995 221.882 547.143C212.858 542.115 200.989 530.944 194.732 514.664C193.922 512.556 194.223 510.223 195.536 508.428C196.804 506.697 198.111 505.225 199.42 504.05C201.121 502.527 203.651 502.485 205.433 503.951L206.788 505.065C207.55 505.691 208.655 505.682 209.417 505.044C210.657 503.999 212.093 503.415 213.569 503.352C216.197 503.238 218.699 504.86 219.834 507.381C222.526 513.366 228.991 528.647 230.851 541.275C231.231 543.855 230.376 546.213 228.617 547.429C228.042 547.826 227.088 548.287 225.766 548.287H225.763ZM202.473 504.219C201.7 504.219 200.929 504.496 200.315 505.047C199.074 506.158 197.827 507.564 196.617 509.22C195.575 510.647 195.337 512.502 195.985 514.185C202.112 530.128 213.716 541.061 222.535 545.975C224.616 547.134 226.507 547.26 227.855 546.33C229.192 545.409 229.834 543.548 229.527 541.473C227.693 529.011 221.283 513.866 218.612 507.932C217.7 505.905 215.7 504.601 213.626 504.689C212.43 504.74 211.304 505.204 210.278 506.068C209.025 507.122 207.201 507.134 205.939 506.098L204.584 504.984C203.964 504.475 203.217 504.219 202.473 504.219Z" fill="black"/>
<path d="M226.904 543.241C225.769 543.241 213.602 542.53 198.848 513.369C198.682 513.038 198.812 512.638 199.143 512.469C199.474 512.303 199.875 512.433 200.043 512.764C214.83 541.991 226.805 541.898 226.928 541.901C227.31 541.886 227.608 542.178 227.621 542.545C227.633 542.916 227.344 543.226 226.976 543.238C226.961 543.238 226.94 543.238 226.907 543.238L226.904 543.241Z" fill="black"/>
<path d="M217.669 527.186C217.401 527.186 217.151 527.027 217.046 526.762C216.911 526.419 217.079 526.03 217.422 525.895L224.263 523.197C224.609 523.061 224.995 523.23 225.13 523.573C225.266 523.917 225.097 524.305 224.754 524.44L217.913 527.138C217.832 527.171 217.751 527.186 217.666 527.186H217.669Z" fill="black"/>
<path d="M215.273 521.947C215.005 521.947 214.752 521.785 214.649 521.52C214.514 521.177 214.686 520.788 215.032 520.653L223.056 517.53C223.399 517.398 223.788 517.567 223.923 517.913C224.056 518.256 223.887 518.644 223.541 518.78L215.517 521.902C215.438 521.932 215.354 521.947 215.273 521.947Z" fill="black"/>
<path d="M149.785 485.636C149.68 485.852 148.879 489.225 148.253 494.909C147.211 504.379 157.809 513.147 157.809 513.147L132.707 509.762L133.668 487.849L149.785 485.636Z" fill="white"/>
<path d="M157.809 513.815C157.779 513.815 157.749 513.815 157.719 513.809L132.617 510.425C132.274 510.379 132.024 510.078 132.039 509.732L132.999 487.819C133.014 487.496 133.255 487.228 133.577 487.183L149.695 484.97C149.942 484.937 150.183 485.04 150.327 485.238C150.466 485.428 150.493 485.678 150.402 485.895C150.255 486.325 149.496 489.74 148.921 494.982C147.93 503.987 158.134 512.544 158.24 512.629C158.469 512.818 158.547 513.14 158.427 513.411C158.318 513.658 158.077 513.812 157.812 513.812L157.809 513.815ZM133.403 509.181L155.783 512.198C152.793 509.265 146.762 502.343 147.587 494.837C148.024 490.866 148.557 487.933 148.891 486.437L134.309 488.439L133.4 509.181H133.403Z" fill="black"/>
<path d="M138.5 503.403C139.972 502.918 139.635 500.642 140.84 499.57C142.655 497.953 144.928 497.986 147.093 499.076C152.507 501.807 167.297 509.654 176.642 518.307C179.945 521.366 179.593 526.34 173.674 527.403C163.976 529.15 147.801 528.18 132.77 519.5C131.045 518.503 129.925 516.696 129.835 514.691C129.762 513.053 129.835 507.627 130.169 505.604C130.485 503.671 132.171 502.268 134.11 502.274H135.859C137.172 502.283 137.247 503.813 138.494 503.403H138.5Z" fill="white"/>
<path d="M164.888 528.806C155.395 528.806 143.592 526.521 132.439 520.078C130.491 518.955 129.272 516.949 129.172 514.721C129.097 513.047 129.172 507.585 129.516 505.496C129.886 503.241 131.816 501.606 134.107 501.606H135.869C136.76 501.612 137.257 502.102 137.618 502.461C137.985 502.825 138.043 502.849 138.292 502.768C138.759 502.614 138.946 502.093 139.214 501.259C139.452 500.516 139.723 499.673 140.397 499.07C142.3 497.372 144.787 497.164 147.398 498.48C153.224 501.419 167.779 509.187 177.1 517.816C179 519.575 179.807 521.947 179.208 524.001C178.853 525.217 177.675 527.364 173.797 528.063C171.187 528.532 168.179 528.806 164.891 528.806H164.888ZM134.104 502.945C132.472 502.945 131.096 504.108 130.834 505.716C130.512 507.688 130.437 513.077 130.509 514.664C130.588 516.434 131.56 518.027 133.111 518.921C147.813 527.415 163.645 528.532 173.56 526.747C175.908 526.325 177.459 525.217 177.922 523.628C178.38 522.062 177.718 520.213 176.191 518.801C166.996 510.286 152.57 502.593 146.795 499.679C145.32 498.935 143.167 498.399 141.288 500.073C140.885 500.431 140.692 501.034 140.49 501.672C140.189 502.608 139.852 503.668 138.714 504.044C137.663 504.391 137.073 503.807 136.679 503.418C136.372 503.114 136.194 502.954 135.866 502.954H134.107L134.104 502.945Z" fill="black"/>
<path d="M164.65 524.425C158.327 524.425 148.758 522.7 134.827 516.462C134.49 516.311 134.339 515.914 134.49 515.576C134.64 515.239 135.038 515.089 135.375 515.239C165.087 528.547 174.339 520.873 174.433 520.791C174.71 520.547 175.134 520.574 175.378 520.851C175.622 521.128 175.595 521.553 175.318 521.797C175.104 521.984 172.171 524.422 164.653 524.422L164.65 524.425Z" fill="black"/>
<path d="M157.653 515.39C157.541 515.39 157.43 515.363 157.324 515.302C157.002 515.122 156.888 514.712 157.069 514.39L160.7 507.947C160.88 507.624 161.29 507.51 161.612 507.691C161.934 507.871 162.049 508.281 161.868 508.603L158.237 515.046C158.113 515.263 157.887 515.387 157.653 515.387V515.39Z" fill="black"/>
<path d="M152.519 512.842C152.402 512.842 152.281 512.809 152.17 512.743C151.854 512.55 151.754 512.138 151.947 511.822L156.036 505.11C156.229 504.794 156.638 504.695 156.957 504.887C157.273 505.08 157.373 505.493 157.18 505.809L153.091 512.52C152.965 512.728 152.745 512.842 152.519 512.842Z" fill="black"/>
<path d="M81.7683 375.174C81.7683 375.174 169.642 371.359 179.247 380.28C192.278 392.381 214.665 493.118 214.665 493.118L193.049 499.179C193.049 499.179 160.483 416.505 152.414 416.505C144.344 416.505 68.2643 413.789 68.2643 413.789L81.7683 375.174Z" fill="black"/>
<path d="M64.4794 372.398C64.4794 372.398 52.8903 406.421 62.1128 412.627C71.3353 418.832 137.811 418.305 135.507 417.528C133.201 416.752 129.564 473.237 129.564 494.958L150.496 495.764C150.496 495.764 183.851 408.411 180.256 398.659C173.824 381.211 125.327 375.321 109.481 372.988C106.217 372.506 64.4824 372.401 64.4824 372.401L64.4794 372.398Z" fill="black"/>
<path d="M169.2 446.719C169.133 446.719 169.064 446.71 168.995 446.686C168.643 446.575 168.45 446.195 168.561 445.843C169.314 443.495 170.061 441.182 170.795 438.918C176.652 420.819 181.713 405.187 179.617 398.867C175.17 385.447 141.918 380.301 130.991 378.612C130.627 378.555 130.374 378.215 130.431 377.847C130.488 377.483 130.834 377.23 131.196 377.287C150.508 380.274 176.673 385.718 180.891 398.445C183.122 405.181 178.247 420.25 172.072 439.331C171.34 441.592 170.591 443.901 169.841 446.253C169.751 446.536 169.486 446.719 169.203 446.719H169.2Z" fill="white"/>
<path d="M74.8973 269.237C74.8973 269.237 75.2074 263.628 71.7419 322.103C71.7419 322.103 74.1265 367.351 74.4246 372.452C74.7227 377.552 118.968 375.336 118.968 375.336C124.201 352.39 123.629 326.057 119.98 297.931L127.561 297.254L128.088 279.574C126.715 274.368 120.922 270.625 117.029 269.234C106.666 264.576 88.2869 266.073 74.8943 269.237H74.8973Z" fill="white"/>
<path d="M99.1053 376.484C98.3405 376.484 97.5697 376.484 96.8019 376.475C73.9761 376.303 73.8225 373.629 73.7563 372.488C73.4612 367.442 71.0976 322.588 71.0735 322.136C71.0735 322.112 71.0735 322.085 71.0735 322.061C72.5278 297.528 73.3167 284.277 73.7412 277.156C73.955 273.597 74.0755 271.568 74.1477 270.433C74.1778 269.945 74.1989 269.574 74.229 269.291C74.229 269.261 74.229 269.231 74.229 269.198L74.235 269.075H74.2561C74.3434 268.457 74.497 268.397 74.9426 268.421C74.9968 268.424 75.0871 268.436 75.1865 268.478C88.019 265.507 106.566 263.79 117.306 268.62C121.847 270.24 127.399 274.32 128.739 279.399C128.754 279.462 128.763 279.526 128.76 279.589L128.233 297.269C128.224 297.609 127.962 297.886 127.625 297.916L120.736 298.534C124.713 329.591 124.352 354.766 119.625 375.484C119.559 375.776 119.306 375.99 119.005 376.005C118.902 376.011 109.294 376.487 99.1083 376.487L99.1053 376.484ZM72.4104 322.103C72.4917 323.63 74.8011 367.433 75.0901 372.41C75.1052 372.672 75.8459 374.978 96.811 375.135C106.434 375.21 116.132 374.794 118.426 374.689C123.045 354.067 123.334 328.98 119.315 298.013C119.291 297.832 119.342 297.648 119.456 297.507C119.571 297.365 119.736 297.275 119.92 297.26L126.911 296.634L127.417 279.646C126.158 275.078 121.046 271.375 116.807 269.857C106.332 265.151 88.1576 266.853 75.5297 269.77C75.3912 271.998 74.8041 281.736 72.4134 322.097L72.4104 322.103Z" fill="black"/>
<path d="M101.336 318.138C101.095 318.138 100.864 318.008 100.743 317.779C100.572 317.451 100.695 317.048 101.023 316.876C111.549 311.33 112.251 295.721 112.254 295.562C112.269 295.191 112.57 294.905 112.946 294.917C113.317 294.933 113.606 295.243 113.591 295.61C113.567 296.281 112.85 312.152 101.643 318.056C101.544 318.108 101.439 318.135 101.333 318.135L101.336 318.138Z" fill="black"/>
<path d="M82.3737 268.46C82.3737 268.46 71.718 267.229 64.8561 276.602C58.0424 285.909 57.2114 296.519 58.497 305.049C60.6799 319.529 69.779 336.014 69.3605 340.512C69.1557 342.695 66.8403 358.219 58.0785 372.121C50.8613 383.568 51.1714 408.812 52.5806 409.634C62.08 415.168 77.6556 426.402 96.2089 427.745C99.6353 427.991 102.436 426.218 102.932 423.445C104.914 412.362 110.222 380.217 111.02 350.039C111.712 323.904 93.1016 284.223 92.2796 280.817C90.2924 272.558 82.3707 268.46 82.3707 268.46H82.3737Z" fill="white"/>
<path d="M96.8561 428.434C96.6273 428.434 96.3955 428.425 96.1576 428.41C80.1184 427.251 66.5873 418.962 56.7084 412.907C55.1126 411.928 53.6041 411.007 52.2432 410.212C51.9421 410.037 51.7494 409.691 51.5928 409.053C50.5751 404.895 50.7407 382.505 57.5123 371.765C66.789 357.048 68.6798 340.611 68.6949 340.452C68.8665 338.618 67.1322 334.135 65.1239 328.947C62.4231 321.974 59.066 313.293 57.8375 305.152C56.6933 297.549 56.886 286.357 64.317 276.211C71.3265 266.636 82.3404 267.789 82.4488 267.801C82.5301 267.81 82.6084 267.834 82.6807 267.87C83.0149 268.042 90.8975 272.206 92.9329 280.664C93.0714 281.236 93.8392 283.13 94.902 285.749C100.096 298.558 112.26 328.553 111.691 350.06C110.902 379.916 105.765 411.41 103.592 423.565C103.068 426.504 100.343 428.44 96.8591 428.44L96.8561 428.434ZM53.005 409.104C54.3569 409.893 55.8412 410.802 57.4069 411.763C67.1684 417.745 80.5399 425.938 96.2539 427.073C99.3582 427.296 101.836 425.754 102.27 423.325C104.438 411.2 109.562 379.787 110.348 350.021C110.908 328.793 98.3767 297.883 93.6585 286.249C92.4933 283.377 91.7918 281.642 91.6292 280.971C89.8648 273.639 83.1173 269.641 82.1718 269.114C80.9915 269.023 71.5463 268.593 65.3949 276.996C58.2349 286.779 58.0513 297.597 59.1593 304.95C60.3637 312.944 63.6938 321.549 66.3705 328.462C68.6106 334.246 70.2275 338.428 70.0257 340.575C69.6313 344.794 66.6956 359.707 58.6444 372.479C51.5928 383.668 52.0415 407.195 53.008 409.11L53.005 409.104Z" fill="black"/>
<path d="M170.281 349.713C157.954 344.926 136.179 325.006 130.272 309.102L129.703 281.471C129.049 277.111 127.514 275.352 123.87 272.92C122.443 271.965 119.983 270.89 117.987 270.493C117.987 270.493 116.954 269.906 116.729 275.56C116.617 278.312 120.122 308.927 120.748 335.168C121.188 353.531 118.448 369.573 118.631 373.102C118.646 373.364 130.732 375.782 131.545 374.969L131.627 374.725L130.931 340.924C137.727 346.853 150.713 357.069 161.025 356.696L170.284 349.71L170.281 349.713Z" fill="white"/>
<path d="M130.395 375.77C126.746 375.77 118.583 373.825 118.493 373.789C118.071 373.626 117.972 373.346 117.96 373.138C117.896 371.934 118.152 369.417 118.505 365.93C119.248 358.596 120.371 347.509 120.076 335.183C119.646 317.186 117.875 297.302 116.819 285.421C116.319 279.821 116.018 276.439 116.057 275.533C116.234 271.146 116.888 270.234 117.436 269.93C117.701 269.782 117.966 269.782 118.164 269.845C120.341 270.288 122.862 271.441 124.241 272.363C127.908 274.813 129.663 276.695 130.365 281.371C130.368 281.398 130.371 281.428 130.371 281.456L130.937 308.975C136.697 324.319 157.836 344.167 170.521 349.09C170.747 349.177 170.91 349.382 170.943 349.623C170.976 349.864 170.877 350.102 170.684 350.249L161.425 357.235C161.317 357.316 161.185 357.364 161.046 357.37C151.727 357.704 140.111 349.65 131.626 342.418L132.292 374.716C132.292 374.791 132.283 374.87 132.259 374.942L132.177 375.186C132.144 375.285 132.09 375.375 132.015 375.448C131.783 375.68 131.199 375.773 130.395 375.773V375.77ZM119.288 372.648C121.242 373.226 129.212 374.635 130.946 374.466L130.256 340.942C130.25 340.678 130.404 340.434 130.642 340.322C130.883 340.211 131.166 340.25 131.364 340.425C143.267 350.803 153.441 356.193 160.787 356.036L168.941 349.885C155.891 344.182 135.297 324.557 129.642 309.334C129.615 309.265 129.603 309.189 129.6 309.114L129.031 281.525C128.408 277.415 127.035 275.837 123.494 273.474C122.256 272.646 120.013 271.613 118.044 271.188C117.884 271.486 117.517 272.495 117.391 275.587C117.358 276.406 117.689 280.137 118.149 285.304C119.209 297.2 120.98 317.111 121.41 335.152C121.708 347.561 120.579 358.698 119.833 366.066C119.525 369.107 119.291 371.401 119.285 372.648H119.288Z" fill="black"/>
<path d="M154.552 351.776C154.901 351.092 155.488 350.55 156.211 350.291C156.729 350.105 157.238 349.861 157.722 349.602L164.446 346.034C165.704 345.417 167.505 346.856 168.812 347.284C172.756 348.578 180.924 351.631 180.25 354.498C179.524 357.59 172.503 356.127 170.013 355.503C169.444 355.362 164.286 357.229 162.654 357.352C160.402 357.524 159.881 356.949 158.779 356.371C158.276 356.106 157.716 355.988 157.111 355.985C156.184 355.979 155.298 355.591 154.717 354.865L154.702 354.847C154.061 354.046 153.95 352.944 154.416 352.032L154.549 351.773L154.552 351.776Z" fill="white"/>
<path d="M161.916 358.057C160.384 358.057 159.679 357.653 158.939 357.229C158.791 357.144 158.637 357.057 158.472 356.97C158.08 356.765 157.635 356.663 157.111 356.66C155.952 356.651 154.892 356.151 154.199 355.287C153.383 354.266 153.242 352.878 153.826 351.731L153.958 351.472C154.395 350.617 155.115 349.975 155.985 349.662C156.403 349.512 156.855 349.304 157.409 349.012L164.132 345.444C165.334 344.854 166.665 345.525 167.836 346.112C168.269 346.329 168.679 346.534 169.022 346.648C177.501 349.433 181.499 352.125 180.906 354.651C180.741 355.362 180.316 355.931 179.651 356.334C177.368 357.725 172.59 356.834 169.907 356.166C169.549 356.19 168.137 356.611 167.098 356.918C165.391 357.424 163.627 357.951 162.711 358.021C162.425 358.042 162.16 358.054 161.919 358.054L161.916 358.057ZM165.141 346.555C164.994 346.555 164.858 346.579 164.741 346.639L158.038 350.195C157.427 350.52 156.921 350.749 156.44 350.924C155.892 351.122 155.434 351.532 155.151 352.083L155.018 352.342C154.672 353.019 154.756 353.838 155.232 354.434C155.684 355.001 156.367 355.317 157.12 355.323C157.855 355.329 158.52 355.482 159.095 355.786C159.276 355.883 159.444 355.976 159.604 356.069C160.366 356.506 160.914 356.819 162.606 356.693C163.38 356.635 165.228 356.084 166.713 355.645C169.113 354.931 169.766 354.763 170.175 354.862C174.315 355.898 177.597 356.024 178.949 355.199C179.308 354.979 179.512 354.711 179.597 354.353C179.97 352.766 175.652 350.243 168.601 347.928C168.164 347.783 167.709 347.558 167.234 347.317C166.52 346.958 165.728 346.561 165.141 346.561V346.555Z" fill="black"/>
<path d="M92.0988 338.344C100.776 358.195 116.298 362.913 141.755 366.304L139.039 373.813C101.002 378.561 93.8421 371.037 78.4653 350.894L92.0988 338.341V338.344Z" fill="white"/>
<path d="M73.2171 387.455C70.5253 387.455 67.5595 386.916 64.3198 385.607C63.9765 385.468 63.8109 385.077 63.9494 384.736C64.0879 384.393 64.4763 384.228 64.8196 384.366C82.0511 391.324 91.0689 375.15 91.1562 374.987C91.3338 374.662 91.7373 374.541 92.0625 374.719C92.3877 374.897 92.5081 375.3 92.3304 375.625C92.2522 375.77 85.7365 387.455 73.211 387.455H73.2171Z" fill="black"/>
<path d="M130.943 339.72C130.584 339.72 130.286 339.437 130.274 339.076L129.362 313.621C129.35 313.251 129.639 312.941 130.006 312.929C130.392 312.911 130.687 313.206 130.699 313.573L131.611 339.028C131.623 339.398 131.334 339.708 130.967 339.72C130.958 339.72 130.952 339.72 130.943 339.72Z" fill="black"/>
<path d="M117.872 375.905C108.517 375.905 103.962 373.912 97.8284 371.226C96.3139 370.564 94.7482 369.878 92.9808 369.167C87.8893 367.12 84.2009 363.958 81.0214 358.915C79.552 356.584 78.2965 354.097 77.0831 351.695C76.0142 349.578 74.9062 347.386 73.6657 345.329C73.476 345.013 73.5754 344.601 73.8915 344.411C74.2076 344.221 74.6201 344.321 74.8098 344.64C76.0774 346.739 77.1945 348.952 78.2754 351.092C79.4738 353.468 80.7143 355.925 82.1505 358.201C85.1674 362.988 88.6631 365.987 93.4776 367.923C95.2661 368.643 96.8408 369.333 98.3643 369.998C106.265 373.458 111.486 375.74 128.401 373.915C129.747 373.771 135.173 373.819 136.504 373.873C136.874 373.888 137.16 374.201 137.145 374.569C137.13 374.939 136.826 375.222 136.45 375.21C135.182 375.159 129.81 375.107 128.546 375.243C124.358 375.695 120.868 375.899 117.872 375.899V375.905Z" fill="black"/>
<path d="M141.192 366.662C141.171 366.662 141.153 366.662 141.132 366.662C140.897 366.641 117.472 364.461 104.115 355.139C100.135 352.363 98.1505 346.212 96.0519 339.699C95.6334 338.404 95.2119 337.097 94.7692 335.803C94.6488 335.453 94.8355 335.071 95.1878 334.954C95.537 334.833 95.9164 335.02 96.0368 335.372C96.4825 336.673 96.907 337.989 97.3255 339.289C99.3549 345.582 101.273 351.523 104.883 354.043C117.95 363.163 141.02 365.31 141.252 365.331C141.619 365.364 141.893 365.689 141.86 366.057C141.83 366.406 141.538 366.668 141.195 366.668L141.192 366.662Z" fill="black"/>
<path d="M135.712 369.805C136.062 369.122 136.649 368.58 137.371 368.321C137.889 368.134 138.398 367.89 138.883 367.631L145.606 364.063C146.865 363.446 148.665 364.885 149.972 365.313C153.916 366.608 162.085 369.661 161.411 372.527C160.685 375.619 153.663 374.156 151.173 373.533C150.604 373.391 145.447 375.258 143.815 375.382C141.563 375.553 141.042 374.978 139.94 374.4C139.437 374.135 138.877 374.018 138.272 374.015C137.344 374.009 136.459 373.62 135.878 372.894L135.863 372.876C135.221 372.075 135.11 370.973 135.577 370.061L135.709 369.802L135.712 369.805Z" fill="white"/>
<path d="M143.074 376.086C141.541 376.086 140.837 375.683 140.096 375.258C139.949 375.174 139.795 375.086 139.629 374.999C139.238 374.794 138.792 374.692 138.269 374.689C137.109 374.68 136.049 374.18 135.357 373.316C134.541 372.295 134.399 370.907 134.984 369.76L135.116 369.501C135.553 368.646 136.272 368.005 137.142 367.692C137.561 367.541 138.013 367.333 138.567 367.041L145.29 363.473C146.488 362.886 147.819 363.555 148.993 364.142C149.427 364.359 149.837 364.563 150.18 364.678C158.659 367.463 162.657 370.155 162.064 372.681C161.898 373.391 161.474 373.96 160.808 374.364C158.526 375.755 153.748 374.864 151.065 374.195C150.707 374.219 149.295 374.641 148.256 374.948C146.549 375.454 144.784 375.981 143.869 376.05C143.583 376.071 143.318 376.083 143.077 376.083L143.074 376.086ZM136.308 370.112L136.176 370.371C135.83 371.049 135.914 371.871 136.387 372.464C136.838 373.03 137.522 373.346 138.275 373.352C139.009 373.358 139.675 373.512 140.25 373.816C140.43 373.912 140.599 374.006 140.759 374.099C141.52 374.535 142.068 374.849 143.76 374.722C144.534 374.665 146.383 374.114 147.867 373.671C150.27 372.958 150.923 372.789 151.33 372.888C155.47 373.924 158.752 374.051 160.104 373.226C160.462 373.006 160.667 372.738 160.751 372.38C161.124 370.793 156.807 368.27 149.755 365.954C149.319 365.81 148.864 365.584 148.388 365.343C147.491 364.894 146.476 364.383 145.892 364.669L139.19 368.225C138.579 368.547 138.073 368.779 137.591 368.953C137.043 369.149 136.585 369.561 136.302 370.112H136.308Z" fill="black"/>
<path d="M131.268 257.076C132.201 256.944 132.839 256.049 132.635 255.128C131.358 249.401 131.849 239.595 131.659 239.872C129.618 242.868 125.366 239.107 119.311 238.869C115.704 238.728 114.316 240.862 113.78 242.612C113.609 243.178 112.844 243.283 112.525 242.786C111.642 241.419 110.14 240.26 107.9 242.5C105.41 244.99 107.493 250.765 109.746 252.659C109.198 253.282 100.595 262.559 93.9924 269.529C92.6856 270.908 92.8693 273.118 94.3838 274.269L100.252 278.722C103.919 281.504 108.933 281.7 112.805 279.21L113.711 278.628C114.65 278.023 114.81 276.716 114.042 275.904L112.263 274.019C110.823 272.308 111.088 270.141 112.007 268.334L115.635 262.186C116.469 263.194 117.52 264.345 118.489 265.022C120.422 266.371 122.825 266.163 124.529 264.534C126.866 262.303 128.501 259.798 129.241 257.362L131.265 257.079L131.268 257.076Z" fill="white"/>
<path d="M106.882 281.609C104.395 281.609 101.911 280.817 99.8488 279.252L93.9805 274.798C93.1073 274.136 92.5533 273.127 92.4659 272.034C92.3756 270.944 92.758 269.861 93.5107 269.066C99.4031 262.845 106.912 254.761 108.818 252.686C107.361 251.12 106.214 248.353 106.114 246.032C106.042 244.343 106.497 242.958 107.433 242.021C108.496 240.956 109.55 240.471 110.559 240.579C111.516 240.682 112.371 241.299 113.094 242.419C113.651 240.766 115.132 238.032 119.345 238.195C121.868 238.294 124.114 238.992 125.917 239.552C128.712 240.42 130.211 240.811 131.111 239.489C131.277 239.245 131.59 239.134 131.87 239.221C132.385 239.381 132.385 239.423 132.385 241.663C132.385 244.665 132.385 250.913 133.291 254.98C133.43 255.595 133.3 256.245 132.939 256.766C132.575 257.293 131.999 257.648 131.364 257.738L129.756 257.964C128.922 260.403 127.284 262.833 124.996 265.016C123.057 266.868 120.29 267.09 118.113 265.567C117.421 265.085 116.626 264.332 115.74 263.33L112.591 268.671C112.049 269.74 111.323 271.854 112.781 273.585L114.533 275.443C115.036 275.976 115.274 276.698 115.183 277.424C115.096 278.15 114.69 278.794 114.075 279.188L113.169 279.769C111.257 281.001 109.068 281.609 106.882 281.609ZM110.279 241.904C109.722 241.904 109.08 242.262 108.373 242.97C107.536 243.807 107.406 245.068 107.445 245.975C107.554 248.456 108.948 251.108 110.176 252.141C110.315 252.256 110.399 252.424 110.414 252.602C110.429 252.783 110.369 252.96 110.248 253.093C109.713 253.701 101.246 262.836 94.4772 269.981C93.9865 270.499 93.7366 271.206 93.7938 271.92C93.851 272.634 94.2123 273.293 94.7844 273.727L100.653 278.18C104.082 280.781 108.818 280.968 112.44 278.637L113.347 278.056C113.627 277.876 113.81 277.584 113.85 277.255C113.889 276.924 113.783 276.596 113.555 276.355L111.775 274.47C110.321 272.748 110.197 270.405 111.411 268.021L115.057 261.836C115.168 261.65 115.364 261.526 115.581 261.508C115.795 261.49 116.011 261.58 116.15 261.749C117.207 263.026 118.122 263.941 118.872 264.462C120.54 265.624 122.578 265.459 124.066 264.04C126.315 261.894 127.884 259.512 128.6 257.157C128.675 256.907 128.889 256.727 129.148 256.691L131.171 256.408C131.439 256.372 131.68 256.221 131.834 256.001C131.984 255.784 132.036 255.522 131.978 255.27C131.039 251.06 131.039 244.713 131.039 241.66V241.326C129.585 242.094 127.661 241.498 125.511 240.829C123.689 240.263 121.627 239.625 119.281 239.531C116.752 239.432 115.111 240.531 114.419 242.801C114.262 243.313 113.835 243.68 113.299 243.753C112.763 243.828 112.251 243.593 111.959 243.141C111.465 242.38 110.944 241.964 110.408 241.907C110.363 241.901 110.321 241.901 110.276 241.901L110.279 241.904Z" fill="black"/>
<path d="M115.638 262.851C115.43 262.851 115.223 262.755 115.093 262.571L113.934 260.954C113.717 260.653 113.786 260.235 114.087 260.021C114.388 259.804 114.807 259.873 115.021 260.174L116.18 261.791C116.397 262.092 116.328 262.511 116.026 262.725C115.909 262.809 115.774 262.851 115.638 262.851Z" fill="black"/>
<path d="M172.256 372.738L192.624 312.712C193.847 310.83 195.973 309.689 198.261 309.689H252.551C255.014 309.689 256.601 312.083 255.797 314.193C255.478 315.033 255.131 315.864 254.851 316.717L236.443 372.843H236.437C236.376 376.125 233.706 378.769 230.415 378.769H130.229C126.899 378.769 124.204 376.068 124.204 372.735H172.259L172.256 372.738Z" fill="black"/>
<path d="M212.608 340.458C211.843 342.999 213.011 345.603 215.221 346.269C217.428 346.937 219.84 345.417 220.605 342.872C221.37 340.331 220.201 337.727 217.991 337.061C215.784 336.393 213.373 337.913 212.608 340.458Z" fill="white"/>
<path d="M330.745 377.769H89.7049C85.2156 377.769 81.723 381.99 82.2318 386.808L98.8762 544.581H110.896L100.478 396.506C100.294 393.896 102.206 391.671 104.63 391.671H311.541C315.166 391.671 318.027 395.001 317.753 398.906L307.437 545.508H319.457L336.384 384.586C336.767 380.952 334.135 377.769 330.748 377.769H330.745Z" fill="white"/>
<path d="M319.454 546.176H307.434C307.248 546.176 307.073 546.098 306.943 545.963C306.817 545.827 306.754 545.644 306.766 545.46L317.081 398.858C317.205 397.075 316.609 395.335 315.437 394.079C314.389 392.956 313.004 392.339 311.538 392.339H104.627C103.709 392.339 102.839 392.727 102.182 393.432C101.441 394.227 101.062 395.329 101.143 396.458L111.561 544.532C111.573 544.719 111.51 544.9 111.384 545.035C111.257 545.171 111.079 545.249 110.893 545.249H98.8732C98.5299 545.249 98.2439 544.99 98.2078 544.65L81.5634 386.877C81.2863 384.261 82.1083 381.674 83.8125 379.781C85.3692 378.052 87.4587 377.101 89.7019 377.101H330.742C332.479 377.101 334.102 377.838 335.306 379.175C336.622 380.639 337.257 382.635 337.044 384.655L320.116 545.577C320.08 545.918 319.794 546.176 319.451 546.176H319.454ZM308.154 544.837H318.852L335.719 384.514C335.891 382.87 335.382 381.25 334.316 380.07C333.367 379.016 332.1 378.438 330.745 378.438H89.7049C87.8472 378.438 86.1098 379.233 84.8091 380.675C83.3579 382.289 82.6623 384.496 82.8972 386.736L99.4784 543.909H110.176L99.8066 396.551C99.7012 395.052 100.21 393.583 101.204 392.52C102.116 391.541 103.332 391.002 104.627 391.002H311.538C313.384 391.002 315.115 391.773 316.419 393.17C317.84 394.697 318.569 396.804 318.418 398.954L308.154 544.84V544.837Z" fill="black"/>
<path d="M193.016 258.271C192.865 258.271 192.712 258.22 192.585 258.115C192.302 257.877 192.266 257.456 192.504 257.173L195.846 253.198C196.084 252.915 196.506 252.879 196.789 253.117C197.072 253.355 197.108 253.776 196.87 254.059L193.528 258.034C193.395 258.19 193.206 258.271 193.016 258.271Z" fill="black"/>
<path d="M185.233 267.533C185.082 267.533 184.929 267.482 184.802 267.377C184.519 267.139 184.483 266.717 184.721 266.434L188.063 262.46C188.301 262.177 188.722 262.141 189.005 262.378C189.288 262.616 189.325 263.038 189.087 263.321L185.745 267.295C185.612 267.452 185.422 267.533 185.233 267.533Z" fill="black"/>
<path d="M188.153 258.693C188.003 258.693 187.849 258.642 187.723 258.536L183.748 255.194C183.465 254.956 183.429 254.535 183.667 254.252C183.905 253.969 184.326 253.933 184.609 254.171L188.584 257.513C188.867 257.751 188.903 258.172 188.665 258.455C188.533 258.612 188.343 258.693 188.153 258.693Z" fill="black"/>
<path d="M197.412 266.476C197.261 266.476 197.108 266.425 196.981 266.32L193.007 262.978C192.724 262.74 192.688 262.318 192.926 262.035C193.163 261.752 193.585 261.716 193.868 261.954L197.842 265.296C198.125 265.534 198.162 265.955 197.924 266.238C197.791 266.395 197.602 266.476 197.412 266.476Z" fill="black"/>
<path d="M174.664 242.223C174.176 242.223 173.689 242.154 173.207 242.012C171.846 241.615 170.72 240.7 170.039 239.432C168.648 236.852 169.579 233.603 172.108 232.191C173.327 231.51 174.736 231.351 176.076 231.742C177.437 232.14 178.563 233.055 179.244 234.323C180.635 236.903 179.704 240.152 177.175 241.564C176.392 242 175.534 242.22 174.664 242.22V242.223ZM172.761 233.362C170.867 234.419 170.175 236.858 171.22 238.8C171.728 239.748 172.568 240.432 173.583 240.727C174.577 241.016 175.622 240.898 176.525 240.396C178.419 239.339 179.111 236.9 178.066 234.958C177.558 234.012 176.718 233.326 175.703 233.031C174.712 232.742 173.664 232.859 172.761 233.362Z" fill="black"/>
<path d="M232.47 250.285C234.738 250.088 236.419 248.112 236.224 245.87C236.03 243.629 234.034 241.971 231.766 242.168C229.498 242.365 227.817 244.341 228.011 246.583C228.206 248.824 230.202 250.482 232.47 250.285Z" fill="black"/>
<path d="M437.889 6.28083C437.717 6.28083 437.545 6.21459 437.416 6.08512L434.495 3.16753C434.233 2.90558 434.233 2.48104 434.495 2.2221C434.757 1.96015 435.182 1.96015 435.441 2.2221L438.361 5.13969C438.623 5.40164 438.623 5.82618 438.361 6.08512C438.232 6.21459 438.06 6.28083 437.889 6.28083Z" fill="black"/>
<path d="M448.111 16.4938C447.939 16.4938 447.767 16.4276 447.638 16.2981L444.717 13.3805C444.455 13.1186 444.455 12.6941 444.717 12.4351C444.979 12.1732 445.404 12.1732 445.663 12.4351L448.583 15.3527C448.845 15.6147 448.845 16.0392 448.583 16.2981C448.454 16.4276 448.282 16.4938 448.111 16.4938Z" fill="black"/>
<path d="M434.968 16.4938C434.796 16.4938 434.625 16.4276 434.495 16.2981C434.233 16.0362 434.233 15.6116 434.495 15.3527L437.416 12.4351C437.678 12.1732 438.102 12.1732 438.361 12.4351C438.623 12.6971 438.623 13.1216 438.361 13.3805L435.441 16.2981C435.311 16.4276 435.139 16.4938 434.968 16.4938Z" fill="black"/>
<path d="M445.19 6.28083C445.018 6.28083 444.847 6.21459 444.717 6.08512C444.455 5.82317 444.455 5.39863 444.717 5.13969L447.638 2.2221C447.9 1.96015 448.324 1.96015 448.583 2.2221C448.845 2.48405 448.845 2.90859 448.583 3.16753L445.663 6.08512C445.533 6.21459 445.362 6.28083 445.19 6.28083Z" fill="black"/>
<path d="M442.625 497.842C442.423 497.842 442.221 497.752 442.092 497.577C441.869 497.282 441.926 496.863 442.218 496.638C469.705 475.73 492.666 450.053 510.47 420.329C510.66 420.013 511.072 419.907 511.388 420.097C511.704 420.287 511.81 420.699 511.62 421.015C493.729 450.89 470.653 476.69 443.031 497.704C442.911 497.797 442.769 497.839 442.628 497.839L442.625 497.842Z" fill="black"/>
<path d="M489.318 477.091C489.156 477.091 488.99 477.03 488.861 476.91C488.59 476.657 488.575 476.236 488.828 475.965C499.95 464.044 510.052 451.034 518.856 437.292C519.054 436.982 519.467 436.892 519.78 437.091C520.093 437.289 520.183 437.705 519.982 438.015C511.136 451.823 500.98 464.899 489.806 476.877C489.674 477.018 489.496 477.091 489.315 477.091H489.318Z" fill="black"/>
<path d="M268.728 509.199C272.001 502.395 272.311 495.539 268.728 488.611L271.3 485.494L356.28 487.834L353.856 510.416L271.128 511.208L268.728 509.199Z" fill="white"/>
<path d="M271.125 511.876C270.968 511.876 270.815 511.822 270.695 511.719L268.295 509.711C268.06 509.515 267.988 509.184 268.12 508.907C271.474 501.928 271.477 495.391 268.129 488.918C268.006 488.68 268.036 488.391 268.207 488.183L270.779 485.067C270.911 484.907 271.113 484.817 271.315 484.823L356.295 487.159C356.482 487.165 356.657 487.247 356.78 487.388C356.903 487.53 356.961 487.713 356.943 487.9L354.519 510.482C354.483 510.819 354.2 511.078 353.859 511.081L271.131 511.873H271.125V511.876ZM269.55 509.016L271.366 510.533L353.251 509.747L355.536 488.478L271.61 486.169L269.523 488.695C272.754 495.207 272.766 502.039 269.553 509.013L269.55 509.016Z" fill="black"/>
<path d="M411.657 483.007H266.455C264.929 483.007 263.691 484.257 263.691 485.798C263.691 487.34 264.929 488.589 266.455 488.589H341.114C345.51 488.589 349.072 492.19 349.072 496.632V501.154C349.072 505.595 345.507 509.196 341.114 509.196H266.455C264.929 509.196 263.691 510.446 263.691 511.987C263.691 513.529 264.929 514.778 266.455 514.778H411.657C419.763 514.778 426.333 508.139 426.333 499.95V497.833C426.333 489.643 419.763 483.004 411.657 483.004V483.007Z" fill="black"/>
<path d="M276.021 548.224H408.592V518.048H276.021C279.501 527.912 279.598 538.625 276.021 548.224Z" fill="white"/>
<path d="M408.592 548.895H276.021C275.801 548.895 275.596 548.787 275.47 548.609C275.346 548.429 275.316 548.2 275.392 547.995C278.866 538.676 278.863 528.12 275.389 518.274C275.316 518.069 275.349 517.841 275.473 517.666C275.599 517.488 275.801 517.383 276.018 517.383H408.589C408.959 517.383 409.257 517.684 409.257 518.051V548.227C409.257 548.597 408.959 548.895 408.589 548.895H408.592ZM276.972 547.556H407.924V518.717H276.957C280.125 528.283 280.131 538.45 276.972 547.556Z" fill="black"/>
<path d="M388.193 529.294H287.839C287.468 529.294 287.17 528.993 287.17 528.626C287.17 528.258 287.468 527.957 287.839 527.957H388.193C388.563 527.957 388.861 528.258 388.861 528.626C388.861 528.993 388.563 529.294 388.193 529.294Z" fill="black"/>
<path d="M388.193 537.728H305.739C305.368 537.728 305.07 537.427 305.07 537.059C305.07 536.692 305.368 536.391 305.739 536.391H388.193C388.563 536.391 388.862 536.692 388.862 537.059C388.862 537.427 388.563 537.728 388.193 537.728Z" fill="black"/>
<path d="M393.423 519.488H274.238C272.98 519.488 271.962 518.458 271.962 517.187C271.962 515.917 272.983 514.887 274.238 514.887H424.544C430.069 514.887 434.549 519.412 434.549 524.998V540.889C434.549 546.472 430.069 551 424.544 551H274.238C272.98 551 271.962 549.97 271.962 548.7C271.962 547.429 272.983 546.399 274.238 546.399H393.423C397.325 546.399 400.49 543.202 400.49 539.257V526.633C400.49 522.688 397.325 519.491 393.423 519.491V519.488Z" fill="black"/>
<path d="M339.422 495.765H278.165C277.794 495.765 277.496 495.463 277.496 495.096C277.496 494.729 277.794 494.428 278.165 494.428H339.422C339.792 494.428 340.09 494.729 340.09 495.096C340.09 495.463 339.792 495.765 339.422 495.765Z" fill="black"/>
</svg>
