<svg width="189" height="32" viewBox="0 0 189 32" fill="none" xmlns="http://www.w3.org/2000/svg">
<g clip-path="url(#clip0_478_293)">
<path fill-rule="evenodd" clip-rule="evenodd" d="M27.6812 15.9701L40.3439 25.3122L52.9941 15.9794L40.3313 6.63718L27.6812 15.9701ZM20.9339 14.3107C19.6918 15.2272 19.6919 16.7129 20.934 17.6294L38.0949 30.2901C39.337 31.2065 41.3509 31.2065 42.593 30.2901L59.7413 17.6386C60.9834 16.7222 60.9834 15.2365 59.7413 14.3201L42.5804 1.65935C41.3383 0.742946 39.3244 0.742946 38.0823 1.65935L20.9339 14.3107Z" fill="white"/>
<path fill-rule="evenodd" clip-rule="evenodd" d="M20.3416 25.3402L7.67876 15.998L20.3289 6.66512L25.3606 9.98375L29.8587 6.66512L22.578 1.6873C21.3359 0.7709 19.322 0.7709 18.0799 1.6873L0.931593 14.3387C-0.310532 15.2551 -0.31053 16.7409 0.931593 17.6573L18.0925 30.3181C19.3347 31.2344 21.3485 31.2344 22.5907 30.3181L29.726 25.3402L25.2279 22.0216L20.3416 25.3402ZM31.0531 17.3125L35.5512 20.6311L39.7389 17.6666C40.981 16.7502 40.981 15.2644 39.7389 14.3481L35.7105 11.0294L31.2123 14.3481L32.9917 16.0073L31.0531 17.3125Z" fill="white"/>
</g>
<path d="M95.4432 13.5795H92.6023C92.5644 13.2879 92.4867 13.0246 92.3693 12.7898C92.2519 12.5549 92.0966 12.3542 91.9034 12.1875C91.7102 12.0208 91.4811 11.8939 91.2159 11.8068C90.9545 11.7159 90.6648 11.6705 90.3466 11.6705C89.7822 11.6705 89.2955 11.8087 88.8864 12.0852C88.4811 12.3617 88.1686 12.7614 87.9489 13.2841C87.733 13.8068 87.625 14.4394 87.625 15.1818C87.625 15.9545 87.7348 16.6023 87.9545 17.125C88.178 17.6439 88.4905 18.036 88.892 18.3011C89.2973 18.5625 89.7765 18.6932 90.3295 18.6932C90.6402 18.6932 90.9223 18.6534 91.1761 18.5739C91.4337 18.4943 91.6591 18.3788 91.8523 18.2273C92.0492 18.072 92.2102 17.8845 92.3352 17.6648C92.464 17.4413 92.553 17.1894 92.6023 16.9091L95.4432 16.9261C95.3939 17.4413 95.2443 17.9489 94.9943 18.4489C94.7481 18.9489 94.4091 19.4053 93.9773 19.8182C93.5455 20.2273 93.0189 20.553 92.3977 20.7955C91.7803 21.0379 91.072 21.1591 90.2727 21.1591C89.2197 21.1591 88.2765 20.928 87.4432 20.4659C86.6136 20 85.9583 19.322 85.4773 18.4318C84.9962 17.5417 84.7557 16.4583 84.7557 15.1818C84.7557 13.9015 85 12.8163 85.4886 11.9261C85.9773 11.036 86.6383 10.3598 87.4716 9.89773C88.3049 9.43561 89.2386 9.20455 90.2727 9.20455C90.9773 9.20455 91.6288 9.30303 92.2273 9.5C92.8258 9.69318 93.3523 9.97727 93.8068 10.3523C94.2614 10.7235 94.6307 11.1799 94.9148 11.7216C95.1989 12.2633 95.375 12.8826 95.4432 13.5795ZM108.036 15.1818C108.036 16.4621 107.789 17.5473 107.297 18.4375C106.804 19.3277 106.138 20.0038 105.297 20.4659C104.46 20.928 103.52 21.1591 102.479 21.1591C101.433 21.1591 100.492 20.9261 99.6548 20.4602C98.8177 19.9943 98.1529 19.3182 97.6605 18.4318C97.1719 17.5417 96.9276 16.4583 96.9276 15.1818C96.9276 13.9015 97.1719 12.8163 97.6605 11.9261C98.1529 11.036 98.8177 10.3598 99.6548 9.89773C100.492 9.43561 101.433 9.20455 102.479 9.20455C103.52 9.20455 104.46 9.43561 105.297 9.89773C106.138 10.3598 106.804 11.036 107.297 11.9261C107.789 12.8163 108.036 13.9015 108.036 15.1818ZM105.161 15.1818C105.161 14.4242 105.053 13.7841 104.837 13.2614C104.625 12.7386 104.318 12.3428 103.916 12.0739C103.518 11.8049 103.039 11.6705 102.479 11.6705C101.922 11.6705 101.443 11.8049 101.041 12.0739C100.64 12.3428 100.331 12.7386 100.115 13.2614C99.9029 13.7841 99.7969 14.4242 99.7969 15.1818C99.7969 15.9394 99.9029 16.5795 100.115 17.1023C100.331 17.625 100.64 18.0208 101.041 18.2898C101.443 18.5587 101.922 18.6932 102.479 18.6932C103.039 18.6932 103.518 18.5587 103.916 18.2898C104.318 18.0208 104.625 17.625 104.837 17.1023C105.053 16.5795 105.161 15.9394 105.161 15.1818ZM113.979 21H109.678V9.36364H113.973C115.159 9.36364 116.179 9.59659 117.036 10.0625C117.895 10.5246 118.558 11.1913 119.024 12.0625C119.49 12.9299 119.723 13.9678 119.723 15.1761C119.723 16.3883 119.49 17.4299 119.024 18.3011C118.562 19.1723 117.901 19.8409 117.041 20.3068C116.181 20.7689 115.161 21 113.979 21ZM112.49 18.6023H113.871C114.522 18.6023 115.073 18.4924 115.524 18.2727C115.979 18.0492 116.321 17.6875 116.553 17.1875C116.787 16.6837 116.905 16.0133 116.905 15.1761C116.905 14.339 116.787 13.6723 116.553 13.1761C116.318 12.6761 115.971 12.3163 115.513 12.0966C115.058 11.8731 114.498 11.7614 113.831 11.7614H112.49V18.6023ZM121.365 21V9.36364H129.479V11.6477H124.178V14.0341H129.064V16.3239H124.178V18.7159H129.479V21H121.365ZM140.967 12.8523C140.929 12.4356 140.761 12.1117 140.462 11.8807C140.166 11.6458 139.744 11.5284 139.195 11.5284C138.831 11.5284 138.528 11.5758 138.286 11.6705C138.043 11.7652 137.861 11.8958 137.74 12.0625C137.619 12.2254 137.556 12.4129 137.553 12.625C137.545 12.7992 137.579 12.9527 137.655 13.0852C137.734 13.2178 137.848 13.3352 137.996 13.4375C138.147 13.536 138.329 13.6231 138.541 13.6989C138.753 13.7746 138.992 13.8409 139.257 13.8977L140.257 14.125C140.833 14.25 141.34 14.4167 141.78 14.625C142.223 14.8333 142.594 15.0814 142.893 15.3693C143.196 15.6572 143.426 15.9886 143.581 16.3636C143.736 16.7386 143.816 17.1591 143.82 17.625C143.816 18.3598 143.63 18.9905 143.263 19.517C142.895 20.0436 142.367 20.447 141.678 20.7273C140.992 21.0076 140.164 21.1477 139.195 21.1477C138.221 21.1477 137.373 21.0019 136.649 20.7102C135.926 20.4186 135.363 19.9754 134.962 19.3807C134.56 18.786 134.354 18.0341 134.342 17.125H137.036C137.058 17.5 137.159 17.8125 137.337 18.0625C137.515 18.3125 137.759 18.5019 138.07 18.6307C138.384 18.7595 138.748 18.8239 139.161 18.8239C139.539 18.8239 139.861 18.7727 140.126 18.6705C140.395 18.5682 140.602 18.4261 140.746 18.2443C140.89 18.0625 140.964 17.8542 140.967 17.6193C140.964 17.3996 140.895 17.2121 140.763 17.0568C140.63 16.8977 140.426 16.7614 140.149 16.6477C139.876 16.5303 139.528 16.4223 139.104 16.3239L137.888 16.0398C136.88 15.8087 136.087 15.4356 135.507 14.9205C134.928 14.4015 134.64 13.7008 134.643 12.8182C134.64 12.0985 134.833 11.4678 135.223 10.9261C135.613 10.3845 136.153 9.96212 136.842 9.65909C137.532 9.35606 138.318 9.20455 139.2 9.20455C140.102 9.20455 140.884 9.35795 141.547 9.66477C142.214 9.9678 142.731 10.3939 143.098 10.9432C143.465 11.4924 143.653 12.1288 143.661 12.8523H140.967ZM145.24 21V9.36364H148.053V14.2841H148.206L152.053 9.36364H155.365L151.24 14.5568L155.439 21H152.075L149.178 16.4261L148.053 17.8466V21H145.24ZM159.287 9.36364V21H156.474V9.36364H159.287ZM161.053 21V9.36364H163.865V18.7159H168.706V21H161.053ZM170.162 21V9.36364H172.974V18.7159H177.815V21H170.162ZM185.561 12.8523C185.523 12.4356 185.355 12.1117 185.055 11.8807C184.76 11.6458 184.338 11.5284 183.788 11.5284C183.425 11.5284 183.122 11.5758 182.879 11.6705C182.637 11.7652 182.455 11.8958 182.334 12.0625C182.213 12.2254 182.15 12.4129 182.146 12.625C182.139 12.7992 182.173 12.9527 182.249 13.0852C182.328 13.2178 182.442 13.3352 182.589 13.4375C182.741 13.536 182.923 13.6231 183.135 13.6989C183.347 13.7746 183.586 13.8409 183.851 13.8977L184.851 14.125C185.427 14.25 185.934 14.4167 186.374 14.625C186.817 14.8333 187.188 15.0814 187.487 15.3693C187.79 15.6572 188.019 15.9886 188.175 16.3636C188.33 16.7386 188.41 17.1591 188.413 17.625C188.41 18.3598 188.224 18.9905 187.857 19.517C187.489 20.0436 186.961 20.447 186.271 20.7273C185.586 21.0076 184.758 21.1477 183.788 21.1477C182.815 21.1477 181.966 21.0019 181.243 20.7102C180.519 20.4186 179.957 19.9754 179.555 19.3807C179.154 18.786 178.947 18.0341 178.936 17.125H181.629C181.652 17.5 181.752 17.8125 181.93 18.0625C182.108 18.3125 182.353 18.5019 182.663 18.6307C182.978 18.7595 183.341 18.8239 183.754 18.8239C184.133 18.8239 184.455 18.7727 184.72 18.6705C184.989 18.5682 185.196 18.4261 185.339 18.2443C185.483 18.0625 185.557 17.8542 185.561 17.6193C185.557 17.3996 185.489 17.2121 185.357 17.0568C185.224 16.8977 185.019 16.7614 184.743 16.6477C184.47 16.5303 184.122 16.4223 183.697 16.3239L182.482 16.0398C181.474 15.8087 180.68 15.4356 180.101 14.9205C179.521 14.4015 179.233 13.7008 179.237 12.8182C179.233 12.0985 179.427 11.4678 179.817 10.9261C180.207 10.3845 180.747 9.96212 181.436 9.65909C182.125 9.35606 182.911 9.20455 183.794 9.20455C184.696 9.20455 185.478 9.35795 186.141 9.66477C186.807 9.9678 187.324 10.3939 187.692 10.9432C188.059 11.4924 188.247 12.1288 188.254 12.8523H185.561Z" fill="white"/>
<defs>
<clipPath id="clip0_478_293">
<rect width="62" height="32" fill="white"/>
</clipPath>
</defs>
</svg>
